<mxfile host="app.diagrams.net" modified="2023-12-06T07:33:22.655Z" agent="Mozilla/5.0 (Windows NT 10.0; Win64; x64) AppleWebKit/537.36 (KHTML, like Gecko) Chrome/119.0.0.0 Safari/537.36 Edg/119.0.0.0" etag="M0Qxk7fmIHWwC4KCYs2s" version="22.1.5" type="github" pages="2">
  <diagram name="페이지-1" id="ZaYBOJVqXKFA3-XdZheF">
    <mxGraphModel dx="2253" dy="843" grid="1" gridSize="10" guides="1" tooltips="1" connect="1" arrows="1" fold="1" page="1" pageScale="1" pageWidth="827" pageHeight="1169" math="0" shadow="0">
      <root>
        <mxCell id="0" />
        <mxCell id="1" parent="0" />
        <mxCell id="SSYOtkQFs4n_i03z0SLr-1" value="아두이노" style="whiteSpace=wrap;html=1;labelBackgroundColor=none;fillColor=#d5e8d4;strokeColor=#82b366;glass=0;rounded=1;shadow=0;arcSize=50;" parent="1" vertex="1">
          <mxGeometry x="150" y="150" width="100" height="40" as="geometry" />
        </mxCell>
        <mxCell id="SSYOtkQFs4n_i03z0SLr-6" value="" style="edgeStyle=orthogonalEdgeStyle;rounded=0;orthogonalLoop=1;jettySize=auto;html=1;labelBackgroundColor=none;strokeColor=#788AA3;fontColor=default;" parent="1" source="SSYOtkQFs4n_i03z0SLr-2" target="SSYOtkQFs4n_i03z0SLr-1" edge="1">
          <mxGeometry relative="1" as="geometry" />
        </mxCell>
        <mxCell id="SSYOtkQFs4n_i03z0SLr-2" value="초음파 센서" style="whiteSpace=wrap;html=1;labelBackgroundColor=none;fillColor=#d5e8d4;strokeColor=#82b366;sketch=1;curveFitting=1;jiggle=2;" parent="1" vertex="1">
          <mxGeometry x="70" y="240" width="90" height="30" as="geometry" />
        </mxCell>
        <mxCell id="SSYOtkQFs4n_i03z0SLr-7" value="" style="edgeStyle=orthogonalEdgeStyle;rounded=0;orthogonalLoop=1;jettySize=auto;html=1;labelBackgroundColor=none;strokeColor=#788AA3;fontColor=default;" parent="1" source="SSYOtkQFs4n_i03z0SLr-3" target="SSYOtkQFs4n_i03z0SLr-1" edge="1">
          <mxGeometry relative="1" as="geometry" />
        </mxCell>
        <mxCell id="SSYOtkQFs4n_i03z0SLr-3" value="초음파 센서" style="whiteSpace=wrap;html=1;labelBackgroundColor=none;fillColor=#d5e8d4;strokeColor=#82b366;sketch=1;curveFitting=1;jiggle=2;" parent="1" vertex="1">
          <mxGeometry x="230" y="240" width="90" height="30" as="geometry" />
        </mxCell>
        <mxCell id="SSYOtkQFs4n_i03z0SLr-8" value="" style="edgeStyle=orthogonalEdgeStyle;rounded=0;orthogonalLoop=1;jettySize=auto;html=1;entryX=0.5;entryY=1;entryDx=0;entryDy=0;labelBackgroundColor=none;strokeColor=#788AA3;fontColor=default;" parent="1" source="SSYOtkQFs4n_i03z0SLr-5" target="SSYOtkQFs4n_i03z0SLr-1" edge="1">
          <mxGeometry relative="1" as="geometry" />
        </mxCell>
        <mxCell id="SSYOtkQFs4n_i03z0SLr-5" value="압력센서" style="whiteSpace=wrap;html=1;labelBackgroundColor=none;fillColor=#d5e8d4;strokeColor=#82b366;sketch=1;curveFitting=1;jiggle=2;" parent="1" vertex="1">
          <mxGeometry x="150" y="360" width="100" height="30" as="geometry" />
        </mxCell>
        <mxCell id="SSYOtkQFs4n_i03z0SLr-9" value="" style="endArrow=classic;html=1;rounded=0;fillColor=#B2C9AB;strokeColor=#788AA3;labelBackgroundColor=none;fontColor=default;" parent="1" edge="1">
          <mxGeometry width="50" height="50" relative="1" as="geometry">
            <mxPoint x="100" y="270" as="sourcePoint" />
            <mxPoint x="100" y="470" as="targetPoint" />
          </mxGeometry>
        </mxCell>
        <mxCell id="SSYOtkQFs4n_i03z0SLr-10" value="" style="endArrow=classic;html=1;rounded=0;fillColor=#B2C9AB;strokeColor=#788AA3;labelBackgroundColor=none;fontColor=default;" parent="1" edge="1">
          <mxGeometry width="50" height="50" relative="1" as="geometry">
            <mxPoint x="290" y="270" as="sourcePoint" />
            <mxPoint x="290" y="470" as="targetPoint" />
          </mxGeometry>
        </mxCell>
        <mxCell id="SSYOtkQFs4n_i03z0SLr-11" value="Actor" style="shape=umlActor;verticalLabelPosition=bottom;verticalAlign=top;html=1;outlineConnect=0;labelBackgroundColor=none;fillColor=#B2C9AB;strokeColor=#788AA3;fontColor=#46495D;" parent="1" vertex="1">
          <mxGeometry x="350" y="340" width="30" height="60" as="geometry" />
        </mxCell>
        <mxCell id="HAphXiX9nkpSd_eAhBmp-4" value="" style="edgeStyle=orthogonalEdgeStyle;rounded=0;orthogonalLoop=1;jettySize=auto;html=1;strokeColor=#788AA3;fontColor=#46495D;startArrow=none;fillColor=#B2C9AB;startFill=0;" parent="1" source="SSYOtkQFs4n_i03z0SLr-13" target="HAphXiX9nkpSd_eAhBmp-2" edge="1">
          <mxGeometry relative="1" as="geometry" />
        </mxCell>
        <mxCell id="SSYOtkQFs4n_i03z0SLr-13" value="컴퓨터" style="whiteSpace=wrap;html=1;labelBackgroundColor=none;fillColor=#d5e8d4;strokeColor=#82b366;glass=0;rounded=1;arcSize=50;" parent="1" vertex="1">
          <mxGeometry x="353.5" y="140" width="120" height="60" as="geometry" />
        </mxCell>
        <mxCell id="SSYOtkQFs4n_i03z0SLr-16" value="UART" style="text;html=1;align=center;verticalAlign=middle;resizable=0;points=[];autosize=1;strokeColor=none;fillColor=none;labelBackgroundColor=none;fontColor=#46495D;" parent="1" vertex="1">
          <mxGeometry x="50" y="210" width="60" height="30" as="geometry" />
        </mxCell>
        <mxCell id="SSYOtkQFs4n_i03z0SLr-17" value="UART" style="text;html=1;align=center;verticalAlign=middle;resizable=0;points=[];autosize=1;strokeColor=none;fillColor=none;labelBackgroundColor=none;fontColor=#46495D;" parent="1" vertex="1">
          <mxGeometry x="280" y="210" width="60" height="30" as="geometry" />
        </mxCell>
        <mxCell id="SSYOtkQFs4n_i03z0SLr-18" value="전원" style="text;html=1;align=center;verticalAlign=middle;resizable=0;points=[];autosize=1;strokeColor=none;fillColor=none;labelBackgroundColor=none;fontColor=#46495D;" parent="1" vertex="1">
          <mxGeometry x="155" y="280" width="50" height="30" as="geometry" />
        </mxCell>
        <mxCell id="SSYOtkQFs4n_i03z0SLr-19" value="I2C" style="text;html=1;align=center;verticalAlign=middle;resizable=0;points=[];autosize=1;strokeColor=none;fillColor=none;labelBackgroundColor=none;fontColor=#46495D;" parent="1" vertex="1">
          <mxGeometry x="360" y="210" width="40" height="30" as="geometry" />
        </mxCell>
        <mxCell id="SSYOtkQFs4n_i03z0SLr-21" value="" style="endArrow=classic;startArrow=classic;html=1;rounded=0;strokeColor=#788AA3;fontColor=#46495D;fillColor=#B2C9AB;" parent="1" target="SSYOtkQFs4n_i03z0SLr-11" edge="1">
          <mxGeometry width="50" height="50" relative="1" as="geometry">
            <mxPoint x="50" y="370" as="sourcePoint" />
            <mxPoint x="240" y="369.5" as="targetPoint" />
          </mxGeometry>
        </mxCell>
        <mxCell id="SSYOtkQFs4n_i03z0SLr-22" value="프로세스" style="whiteSpace=wrap;html=1;strokeColor=#82b366;fillColor=#d5e8d4;" parent="1" vertex="1">
          <mxGeometry x="200" y="480" width="130" height="30" as="geometry" />
        </mxCell>
        <mxCell id="SSYOtkQFs4n_i03z0SLr-27" value="" style="edgeStyle=orthogonalEdgeStyle;rounded=0;orthogonalLoop=1;jettySize=auto;html=1;strokeColor=#788AA3;fontColor=#46495D;fillColor=#B2C9AB;" parent="1" source="SSYOtkQFs4n_i03z0SLr-23" target="SSYOtkQFs4n_i03z0SLr-22" edge="1">
          <mxGeometry relative="1" as="geometry" />
        </mxCell>
        <mxCell id="SSYOtkQFs4n_i03z0SLr-23" value="메인쓰레드&lt;br&gt;(처리, 전송)" style="whiteSpace=wrap;html=1;strokeColor=#82b366;fillColor=#d5e8d4;rounded=1;arcSize=50;" parent="1" vertex="1">
          <mxGeometry x="200" y="540" width="130" height="30" as="geometry" />
        </mxCell>
        <mxCell id="SSYOtkQFs4n_i03z0SLr-30" value="" style="edgeStyle=orthogonalEdgeStyle;rounded=0;orthogonalLoop=1;jettySize=auto;html=1;strokeColor=#788AA3;fontColor=#46495D;fillColor=#B2C9AB;" parent="1" source="SSYOtkQFs4n_i03z0SLr-24" target="SSYOtkQFs4n_i03z0SLr-23" edge="1">
          <mxGeometry relative="1" as="geometry">
            <Array as="points">
              <mxPoint x="200" y="580" />
              <mxPoint x="265" y="580" />
            </Array>
          </mxGeometry>
        </mxCell>
        <mxCell id="SSYOtkQFs4n_i03z0SLr-24" value="쓰레드1&lt;br&gt;(TOF1)" style="whiteSpace=wrap;html=1;strokeColor=#82b366;fillColor=#d5e8d4;sketch=1;curveFitting=1;jiggle=2;" parent="1" vertex="1">
          <mxGeometry x="170" y="600" width="60" height="80" as="geometry" />
        </mxCell>
        <mxCell id="SSYOtkQFs4n_i03z0SLr-29" value="" style="edgeStyle=orthogonalEdgeStyle;rounded=0;orthogonalLoop=1;jettySize=auto;html=1;strokeColor=#788AA3;fontColor=#46495D;fillColor=#B2C9AB;" parent="1" source="SSYOtkQFs4n_i03z0SLr-25" target="SSYOtkQFs4n_i03z0SLr-23" edge="1">
          <mxGeometry relative="1" as="geometry">
            <Array as="points">
              <mxPoint x="265" y="590" />
              <mxPoint x="265" y="590" />
            </Array>
          </mxGeometry>
        </mxCell>
        <mxCell id="SSYOtkQFs4n_i03z0SLr-25" value="쓰레드2&lt;br&gt;(TOF2)" style="whiteSpace=wrap;html=1;strokeColor=#82b366;fillColor=#d5e8d4;sketch=1;curveFitting=1;jiggle=2;" parent="1" vertex="1">
          <mxGeometry x="240" y="600" width="60" height="80" as="geometry" />
        </mxCell>
        <mxCell id="SSYOtkQFs4n_i03z0SLr-28" value="" style="edgeStyle=orthogonalEdgeStyle;rounded=0;orthogonalLoop=1;jettySize=auto;html=1;strokeColor=#788AA3;fontColor=#46495D;fillColor=#B2C9AB;" parent="1" source="SSYOtkQFs4n_i03z0SLr-26" target="SSYOtkQFs4n_i03z0SLr-23" edge="1">
          <mxGeometry relative="1" as="geometry">
            <Array as="points">
              <mxPoint x="320" y="580" />
              <mxPoint x="265" y="580" />
            </Array>
          </mxGeometry>
        </mxCell>
        <mxCell id="SSYOtkQFs4n_i03z0SLr-26" value="쓰레드3&lt;br&gt;(압력센서)" style="whiteSpace=wrap;html=1;strokeColor=#82b366;fillColor=#d5e8d4;sketch=1;curveFitting=1;jiggle=2;" parent="1" vertex="1">
          <mxGeometry x="310" y="600" width="60" height="80" as="geometry" />
        </mxCell>
        <mxCell id="SSYOtkQFs4n_i03z0SLr-31" value="프로세스" style="whiteSpace=wrap;html=1;strokeColor=#82b366;fillColor=#d5e8d4;" parent="1" vertex="1">
          <mxGeometry x="480" y="480" width="130" height="30" as="geometry" />
        </mxCell>
        <mxCell id="SSYOtkQFs4n_i03z0SLr-32" value="" style="edgeStyle=orthogonalEdgeStyle;rounded=0;orthogonalLoop=1;jettySize=auto;html=1;strokeColor=#788AA3;fontColor=#46495D;fillColor=#B2C9AB;" parent="1" source="SSYOtkQFs4n_i03z0SLr-33" target="SSYOtkQFs4n_i03z0SLr-31" edge="1">
          <mxGeometry relative="1" as="geometry" />
        </mxCell>
        <mxCell id="SSYOtkQFs4n_i03z0SLr-33" value="메인쓰레드&lt;br&gt;(처리된 값 전송)" style="whiteSpace=wrap;html=1;strokeColor=#82b366;fillColor=#d5e8d4;rounded=1;arcSize=50;" parent="1" vertex="1">
          <mxGeometry x="480" y="540" width="130" height="30" as="geometry" />
        </mxCell>
        <mxCell id="SSYOtkQFs4n_i03z0SLr-45" value="" style="edgeStyle=orthogonalEdgeStyle;rounded=0;orthogonalLoop=1;jettySize=auto;html=1;strokeColor=#788AA3;fontColor=#46495D;fillColor=#B2C9AB;entryX=0.5;entryY=1;entryDx=0;entryDy=0;" parent="1" source="SSYOtkQFs4n_i03z0SLr-35" target="SSYOtkQFs4n_i03z0SLr-40" edge="1">
          <mxGeometry relative="1" as="geometry">
            <Array as="points">
              <mxPoint x="444" y="640" />
              <mxPoint x="545" y="640" />
            </Array>
          </mxGeometry>
        </mxCell>
        <mxCell id="SSYOtkQFs4n_i03z0SLr-35" value="쓰레드1&lt;br&gt;(TOF1)" style="whiteSpace=wrap;html=1;strokeColor=#82b366;fillColor=#d5e8d4;sketch=1;curveFitting=1;jiggle=2;" parent="1" vertex="1">
          <mxGeometry x="413.5" y="650" width="60" height="80" as="geometry" />
        </mxCell>
        <mxCell id="SSYOtkQFs4n_i03z0SLr-43" value="" style="edgeStyle=orthogonalEdgeStyle;rounded=0;orthogonalLoop=1;jettySize=auto;html=1;strokeColor=#788AA3;fontColor=#46495D;fillColor=#B2C9AB;" parent="1" source="SSYOtkQFs4n_i03z0SLr-37" target="SSYOtkQFs4n_i03z0SLr-40" edge="1">
          <mxGeometry relative="1" as="geometry" />
        </mxCell>
        <mxCell id="SSYOtkQFs4n_i03z0SLr-37" value="쓰레드2&lt;br&gt;(TOF2)" style="whiteSpace=wrap;html=1;strokeColor=#82b366;fillColor=#d5e8d4;sketch=1;curveFitting=1;jiggle=2;" parent="1" vertex="1">
          <mxGeometry x="515" y="650" width="60" height="80" as="geometry" />
        </mxCell>
        <mxCell id="SSYOtkQFs4n_i03z0SLr-42" value="" style="edgeStyle=orthogonalEdgeStyle;rounded=0;orthogonalLoop=1;jettySize=auto;html=1;strokeColor=#788AA3;fontColor=#46495D;fillColor=#B2C9AB;entryX=0.5;entryY=1;entryDx=0;entryDy=0;" parent="1" source="SSYOtkQFs4n_i03z0SLr-39" target="SSYOtkQFs4n_i03z0SLr-40" edge="1">
          <mxGeometry relative="1" as="geometry">
            <Array as="points">
              <mxPoint x="650" y="640" />
              <mxPoint x="545" y="640" />
            </Array>
          </mxGeometry>
        </mxCell>
        <mxCell id="SSYOtkQFs4n_i03z0SLr-39" value="쓰레드3&lt;br&gt;(압력센서)" style="whiteSpace=wrap;html=1;strokeColor=#82b366;fillColor=#d5e8d4;sketch=1;curveFitting=1;jiggle=2;" parent="1" vertex="1">
          <mxGeometry x="620" y="650" width="60" height="80" as="geometry" />
        </mxCell>
        <mxCell id="SSYOtkQFs4n_i03z0SLr-46" value="" style="edgeStyle=orthogonalEdgeStyle;rounded=0;orthogonalLoop=1;jettySize=auto;html=1;strokeColor=#788AA3;fontColor=#46495D;fillColor=#B2C9AB;" parent="1" source="SSYOtkQFs4n_i03z0SLr-40" target="SSYOtkQFs4n_i03z0SLr-33" edge="1">
          <mxGeometry relative="1" as="geometry" />
        </mxCell>
        <mxCell id="SSYOtkQFs4n_i03z0SLr-40" value="처리쓰레드&lt;br&gt;(count, 시간데이터)" style="whiteSpace=wrap;html=1;strokeColor=#82b366;fillColor=#d5e8d4;rounded=1;arcSize=50;" parent="1" vertex="1">
          <mxGeometry x="480" y="600" width="130" height="30" as="geometry" />
        </mxCell>
        <mxCell id="SSYOtkQFs4n_i03z0SLr-47" value="초음파" style="text;html=1;align=center;verticalAlign=middle;resizable=0;points=[];autosize=1;strokeColor=none;fillColor=none;fontColor=#46495D;" parent="1" vertex="1">
          <mxGeometry x="45" y="300" width="60" height="30" as="geometry" />
        </mxCell>
        <mxCell id="SSYOtkQFs4n_i03z0SLr-48" value="초음파" style="text;html=1;align=center;verticalAlign=middle;resizable=0;points=[];autosize=1;strokeColor=none;fillColor=none;fontColor=#46495D;" parent="1" vertex="1">
          <mxGeometry x="290" y="300" width="60" height="30" as="geometry" />
        </mxCell>
        <mxCell id="SSYOtkQFs4n_i03z0SLr-49" value="" style="endArrow=classic;startArrow=classic;html=1;rounded=0;strokeColor=#788AA3;fontColor=#46495D;fillColor=#B2C9AB;entryX=0;entryY=0.5;entryDx=0;entryDy=0;exitX=1;exitY=0.5;exitDx=0;exitDy=0;" parent="1" source="SSYOtkQFs4n_i03z0SLr-1" target="SSYOtkQFs4n_i03z0SLr-13" edge="1">
          <mxGeometry width="50" height="50" relative="1" as="geometry">
            <mxPoint x="250" y="170" as="sourcePoint" />
            <mxPoint x="335" y="170" as="targetPoint" />
          </mxGeometry>
        </mxCell>
        <mxCell id="SSYOtkQFs4n_i03z0SLr-58" value="" style="edgeStyle=orthogonalEdgeStyle;rounded=0;orthogonalLoop=1;jettySize=auto;html=1;strokeColor=#788AA3;fontColor=#46495D;fillColor=#B2C9AB;exitX=1;exitY=0.5;exitDx=0;exitDy=0;entryX=0;entryY=0.5;entryDx=0;entryDy=0;" parent="1" source="SSYOtkQFs4n_i03z0SLr-52" target="SSYOtkQFs4n_i03z0SLr-57" edge="1">
          <mxGeometry relative="1" as="geometry" />
        </mxCell>
        <mxCell id="SSYOtkQFs4n_i03z0SLr-64" style="edgeStyle=orthogonalEdgeStyle;rounded=0;orthogonalLoop=1;jettySize=auto;html=1;strokeColor=#788AA3;fontColor=#46495D;fillColor=#B2C9AB;" parent="1" source="SSYOtkQFs4n_i03z0SLr-52" edge="1">
          <mxGeometry relative="1" as="geometry">
            <mxPoint x="250" y="940" as="targetPoint" />
            <Array as="points">
              <mxPoint x="250" y="970" />
              <mxPoint x="250" y="970" />
            </Array>
          </mxGeometry>
        </mxCell>
        <mxCell id="SSYOtkQFs4n_i03z0SLr-52" value="R4" style="whiteSpace=wrap;html=1;strokeColor=#82b366;fillColor=#d5e8d4;rounded=1;arcSize=50;" parent="1" vertex="1">
          <mxGeometry x="230" y="900" width="40" height="40" as="geometry" />
        </mxCell>
        <mxCell id="SSYOtkQFs4n_i03z0SLr-63" value="" style="edgeStyle=orthogonalEdgeStyle;rounded=0;orthogonalLoop=1;jettySize=auto;html=1;strokeColor=#788AA3;fontColor=#46495D;fillColor=#B2C9AB;" parent="1" source="SSYOtkQFs4n_i03z0SLr-53" edge="1">
          <mxGeometry relative="1" as="geometry">
            <mxPoint x="250" y="900" as="targetPoint" />
          </mxGeometry>
        </mxCell>
        <mxCell id="SSYOtkQFs4n_i03z0SLr-53" value="센서" style="whiteSpace=wrap;html=1;strokeColor=#82b366;fillColor=#d5e8d4;sketch=1;curveFitting=1;jiggle=2;" parent="1" vertex="1">
          <mxGeometry x="230" y="840" width="40" height="30" as="geometry" />
        </mxCell>
        <mxCell id="SSYOtkQFs4n_i03z0SLr-54" value="센서" style="whiteSpace=wrap;html=1;strokeColor=#82b366;fillColor=#d5e8d4;sketch=1;curveFitting=1;jiggle=2;" parent="1" vertex="1">
          <mxGeometry x="230" y="970" width="40" height="30" as="geometry" />
        </mxCell>
        <mxCell id="SSYOtkQFs4n_i03z0SLr-57" value="컴퓨터" style="whiteSpace=wrap;html=1;strokeColor=#82b366;fillColor=#d5e8d4;rounded=1;arcSize=50;" parent="1" vertex="1">
          <mxGeometry x="350" y="900" width="50" height="40" as="geometry" />
        </mxCell>
        <mxCell id="SSYOtkQFs4n_i03z0SLr-61" value="LCD&lt;br&gt;또는&lt;br&gt;콘솔" style="whiteSpace=wrap;html=1;strokeColor=#82b366;fillColor=#d5e8d4;" parent="1" vertex="1">
          <mxGeometry x="80" y="895" width="90" height="50" as="geometry" />
        </mxCell>
        <mxCell id="HAphXiX9nkpSd_eAhBmp-2" value="휴대전화" style="whiteSpace=wrap;html=1;labelBackgroundColor=none;fillColor=#d5e8d4;strokeColor=#82b366;glass=0;" parent="1" vertex="1">
          <mxGeometry x="590" y="140" width="120" height="60" as="geometry" />
        </mxCell>
        <mxCell id="Nvy7Cld-LneKntpPMbBh-2" value="" style="edgeStyle=none;curved=1;rounded=0;orthogonalLoop=1;jettySize=auto;html=1;fontSize=11;startSize=8;endSize=8;entryX=0;entryY=0.25;entryDx=0;entryDy=0;exitX=1;exitY=1;exitDx=0;exitDy=0;strokeColor=#788AA3;fontColor=#46495D;startArrow=none;fillColor=#B2C9AB;startFill=0;" parent="1" source="SSYOtkQFs4n_i03z0SLr-1" target="Nvy7Cld-LneKntpPMbBh-1" edge="1">
          <mxGeometry relative="1" as="geometry">
            <mxPoint x="290" y="180" as="sourcePoint" />
            <mxPoint x="250" y="170" as="targetPoint" />
            <Array as="points">
              <mxPoint x="350" y="200" />
            </Array>
          </mxGeometry>
        </mxCell>
        <mxCell id="Nvy7Cld-LneKntpPMbBh-1" value="LCD 출력" style="whiteSpace=wrap;html=1;fontSize=16;fillColor=#d5e8d4;strokeColor=#82b366;" parent="1" vertex="1">
          <mxGeometry x="390" y="240" width="90" height="30" as="geometry" />
        </mxCell>
        <mxCell id="Nvy7Cld-LneKntpPMbBh-3" value="API, aws 람다" style="text;html=1;align=center;verticalAlign=middle;resizable=0;points=[];autosize=1;strokeColor=none;fillColor=none;fontSize=16;" parent="1" vertex="1">
          <mxGeometry x="470" y="140" width="120" height="30" as="geometry" />
        </mxCell>
        <mxCell id="Nvy7Cld-LneKntpPMbBh-4" value="UART(serial)" style="text;html=1;align=center;verticalAlign=middle;resizable=0;points=[];autosize=1;strokeColor=none;fillColor=none;fontSize=16;" parent="1" vertex="1">
          <mxGeometry x="240" y="140" width="120" height="30" as="geometry" />
        </mxCell>
        <mxCell id="Nvy7Cld-LneKntpPMbBh-8" value="MQTT" style="text;html=1;align=center;verticalAlign=middle;resizable=0;points=[];autosize=1;strokeColor=none;fillColor=none;fontSize=16;" parent="1" vertex="1">
          <mxGeometry x="275" y="920" width="70" height="30" as="geometry" />
        </mxCell>
        <mxCell id="Nvy7Cld-LneKntpPMbBh-11" value="MQTT" style="text;html=1;align=center;verticalAlign=middle;resizable=0;points=[];autosize=1;strokeColor=none;fillColor=none;fontSize=16;" parent="1" vertex="1">
          <mxGeometry x="-215" y="920" width="70" height="30" as="geometry" />
        </mxCell>
        <mxCell id="WPv6gTqN2YTWObSN8dlL-2" value="" style="edgeStyle=orthogonalEdgeStyle;rounded=0;orthogonalLoop=1;jettySize=auto;html=1;strokeColor=#788AA3;fontColor=#46495D;fillColor=#B2C9AB;" edge="1" parent="1" source="WPv6gTqN2YTWObSN8dlL-4" target="WPv6gTqN2YTWObSN8dlL-9">
          <mxGeometry relative="1" as="geometry" />
        </mxCell>
        <mxCell id="WPv6gTqN2YTWObSN8dlL-3" style="edgeStyle=orthogonalEdgeStyle;rounded=0;orthogonalLoop=1;jettySize=auto;html=1;strokeColor=#788AA3;fontColor=#46495D;fillColor=#B2C9AB;" edge="1" parent="1" source="WPv6gTqN2YTWObSN8dlL-4">
          <mxGeometry relative="1" as="geometry">
            <mxPoint x="-310" y="940" as="targetPoint" />
            <Array as="points">
              <mxPoint x="-310" y="970" />
              <mxPoint x="-310" y="970" />
            </Array>
          </mxGeometry>
        </mxCell>
        <mxCell id="WPv6gTqN2YTWObSN8dlL-4" value="R4" style="whiteSpace=wrap;html=1;strokeColor=#82b366;fillColor=#d5e8d4;rounded=1;arcSize=50;" vertex="1" parent="1">
          <mxGeometry x="-330" y="900" width="40" height="40" as="geometry" />
        </mxCell>
        <mxCell id="WPv6gTqN2YTWObSN8dlL-5" value="" style="edgeStyle=orthogonalEdgeStyle;rounded=0;orthogonalLoop=1;jettySize=auto;html=1;strokeColor=#788AA3;fontColor=#46495D;fillColor=#B2C9AB;" edge="1" parent="1" source="WPv6gTqN2YTWObSN8dlL-6">
          <mxGeometry relative="1" as="geometry">
            <mxPoint x="-310" y="900" as="targetPoint" />
          </mxGeometry>
        </mxCell>
        <mxCell id="WPv6gTqN2YTWObSN8dlL-6" value="센서" style="whiteSpace=wrap;html=1;strokeColor=#82b366;fillColor=#d5e8d4;sketch=1;curveFitting=1;jiggle=2;" vertex="1" parent="1">
          <mxGeometry x="-330" y="840" width="40" height="30" as="geometry" />
        </mxCell>
        <mxCell id="WPv6gTqN2YTWObSN8dlL-7" value="센서" style="whiteSpace=wrap;html=1;strokeColor=#82b366;fillColor=#d5e8d4;sketch=1;curveFitting=1;jiggle=2;" vertex="1" parent="1">
          <mxGeometry x="-330" y="970" width="40" height="30" as="geometry" />
        </mxCell>
        <mxCell id="WPv6gTqN2YTWObSN8dlL-8" value="" style="edgeStyle=orthogonalEdgeStyle;rounded=0;orthogonalLoop=1;jettySize=auto;html=1;strokeColor=#788AA3;fontColor=#46495D;fillColor=#B2C9AB;" edge="1" parent="1" source="WPv6gTqN2YTWObSN8dlL-9" target="WPv6gTqN2YTWObSN8dlL-11">
          <mxGeometry relative="1" as="geometry" />
        </mxCell>
        <mxCell id="WPv6gTqN2YTWObSN8dlL-9" value="컴퓨터" style="whiteSpace=wrap;html=1;strokeColor=#82b366;fillColor=#d5e8d4;rounded=1;arcSize=50;" vertex="1" parent="1">
          <mxGeometry x="-250" y="900" width="50" height="40" as="geometry" />
        </mxCell>
        <mxCell id="WPv6gTqN2YTWObSN8dlL-10" value="" style="edgeStyle=orthogonalEdgeStyle;rounded=0;orthogonalLoop=1;jettySize=auto;html=1;strokeColor=#788AA3;fontColor=#46495D;fillColor=#B2C9AB;" edge="1" parent="1" source="WPv6gTqN2YTWObSN8dlL-11" target="WPv6gTqN2YTWObSN8dlL-12">
          <mxGeometry relative="1" as="geometry" />
        </mxCell>
        <mxCell id="WPv6gTqN2YTWObSN8dlL-11" value="R4" style="whiteSpace=wrap;html=1;strokeColor=#82b366;fillColor=#d5e8d4;rounded=1;arcSize=50;" vertex="1" parent="1">
          <mxGeometry x="-155" y="900" width="40" height="40" as="geometry" />
        </mxCell>
        <mxCell id="WPv6gTqN2YTWObSN8dlL-12" value="LCD" style="whiteSpace=wrap;html=1;strokeColor=#82b366;fillColor=#d5e8d4;" vertex="1" parent="1">
          <mxGeometry x="-70" y="900" width="90" height="40" as="geometry" />
        </mxCell>
        <mxCell id="WPv6gTqN2YTWObSN8dlL-13" value="MQTT" style="text;html=1;align=center;verticalAlign=middle;resizable=0;points=[];autosize=1;strokeColor=none;fillColor=none;fontSize=16;" vertex="1" parent="1">
          <mxGeometry x="-305" y="920" width="70" height="30" as="geometry" />
        </mxCell>
        <mxCell id="WPv6gTqN2YTWObSN8dlL-15" value="UART" style="text;html=1;align=center;verticalAlign=middle;resizable=0;points=[];autosize=1;strokeColor=none;fillColor=none;fontSize=16;" vertex="1" parent="1">
          <mxGeometry x="-130" y="920" width="70" height="30" as="geometry" />
        </mxCell>
        <mxCell id="WPv6gTqN2YTWObSN8dlL-18" value="" style="edgeStyle=orthogonalEdgeStyle;rounded=0;orthogonalLoop=1;jettySize=auto;html=1;strokeColor=#788AA3;fontColor=#46495D;fillColor=#B2C9AB;entryX=1;entryY=0.5;entryDx=0;entryDy=0;exitX=0;exitY=0.5;exitDx=0;exitDy=0;" edge="1" parent="1" source="SSYOtkQFs4n_i03z0SLr-52" target="SSYOtkQFs4n_i03z0SLr-61">
          <mxGeometry relative="1" as="geometry">
            <mxPoint x="199" y="870" as="targetPoint" />
            <mxPoint x="199" y="750" as="sourcePoint" />
          </mxGeometry>
        </mxCell>
        <mxCell id="WPv6gTqN2YTWObSN8dlL-20" value="" style="edgeStyle=orthogonalEdgeStyle;rounded=0;orthogonalLoop=1;jettySize=auto;html=1;strokeColor=#788AA3;fontColor=#46495D;fillColor=#B2C9AB;" edge="1" parent="1">
          <mxGeometry relative="1" as="geometry">
            <mxPoint x="-225.5" y="900" as="sourcePoint" />
            <mxPoint x="-225" y="860" as="targetPoint" />
            <Array as="points">
              <mxPoint x="-225.5" y="890" />
              <mxPoint x="-225.5" y="820" />
            </Array>
          </mxGeometry>
        </mxCell>
        <mxCell id="WPv6gTqN2YTWObSN8dlL-21" value="NHN Cloud" style="text;html=1;align=center;verticalAlign=middle;resizable=0;points=[];autosize=1;strokeColor=none;fillColor=none;fontSize=16;" vertex="1" parent="1">
          <mxGeometry x="-220" y="870" width="100" height="30" as="geometry" />
        </mxCell>
        <mxCell id="WPv6gTqN2YTWObSN8dlL-22" value="휴대전화" style="whiteSpace=wrap;html=1;strokeColor=#82b366;fillColor=#d5e8d4;" vertex="1" parent="1">
          <mxGeometry x="-270" y="820" width="90" height="40" as="geometry" />
        </mxCell>
        <mxCell id="WPv6gTqN2YTWObSN8dlL-23" value="초음파 센서 1" style="whiteSpace=wrap;html=1;strokeColor=#82b366;fillColor=#d5e8d4;sketch=1;curveFitting=1;jiggle=2;" vertex="1" parent="1">
          <mxGeometry x="-390" y="585" width="85" height="80" as="geometry" />
        </mxCell>
        <mxCell id="WPv6gTqN2YTWObSN8dlL-24" value="초음파 센서 2" style="whiteSpace=wrap;html=1;strokeColor=#82b366;fillColor=#d5e8d4;sketch=1;curveFitting=1;jiggle=2;" vertex="1" parent="1">
          <mxGeometry x="-287.5" y="585" width="85" height="80" as="geometry" />
        </mxCell>
        <mxCell id="WPv6gTqN2YTWObSN8dlL-25" value="압력센서" style="whiteSpace=wrap;html=1;strokeColor=#82b366;fillColor=#d5e8d4;sketch=1;curveFitting=1;jiggle=2;" vertex="1" parent="1">
          <mxGeometry x="-190" y="585" width="80" height="80" as="geometry" />
        </mxCell>
        <mxCell id="WPv6gTqN2YTWObSN8dlL-28" value="R4 INT 처리" style="whiteSpace=wrap;html=1;strokeColor=#82b366;fillColor=#d5e8d4;rounded=1;arcSize=50;" vertex="1" parent="1">
          <mxGeometry x="-310" y="500" width="130" height="30" as="geometry" />
        </mxCell>
        <mxCell id="WPv6gTqN2YTWObSN8dlL-29" value="" style="edgeStyle=elbowEdgeStyle;elbow=vertical;endArrow=classic;html=1;curved=0;rounded=0;endSize=8;startSize=8;fontSize=12;entryX=0.5;entryY=1;entryDx=0;entryDy=0;exitX=0.5;exitY=0;exitDx=0;exitDy=0;" edge="1" parent="1" source="WPv6gTqN2YTWObSN8dlL-23" target="WPv6gTqN2YTWObSN8dlL-28">
          <mxGeometry width="50" height="50" relative="1" as="geometry">
            <mxPoint x="-320" y="585" as="sourcePoint" />
            <mxPoint x="-270" y="535" as="targetPoint" />
          </mxGeometry>
        </mxCell>
        <mxCell id="WPv6gTqN2YTWObSN8dlL-31" value="" style="edgeStyle=elbowEdgeStyle;elbow=vertical;endArrow=classic;html=1;curved=0;rounded=0;endSize=8;startSize=8;fontSize=12;entryX=0.5;entryY=1;entryDx=0;entryDy=0;" edge="1" parent="1" target="WPv6gTqN2YTWObSN8dlL-28">
          <mxGeometry width="50" height="50" relative="1" as="geometry">
            <mxPoint x="-150" y="585" as="sourcePoint" />
            <mxPoint x="-100" y="535" as="targetPoint" />
          </mxGeometry>
        </mxCell>
        <mxCell id="WPv6gTqN2YTWObSN8dlL-32" value="" style="edgeStyle=elbowEdgeStyle;elbow=vertical;endArrow=classic;html=1;curved=0;rounded=0;endSize=8;startSize=8;fontSize=12;entryX=0.5;entryY=1;entryDx=0;entryDy=0;exitX=0.5;exitY=0;exitDx=0;exitDy=0;" edge="1" parent="1" source="WPv6gTqN2YTWObSN8dlL-24" target="WPv6gTqN2YTWObSN8dlL-28">
          <mxGeometry width="50" height="50" relative="1" as="geometry">
            <mxPoint x="-30" y="590" as="sourcePoint" />
            <mxPoint x="20" y="540" as="targetPoint" />
          </mxGeometry>
        </mxCell>
        <mxCell id="WPv6gTqN2YTWObSN8dlL-35" value="" style="edgeStyle=orthogonalEdgeStyle;rounded=0;orthogonalLoop=1;jettySize=auto;html=1;strokeColor=#788AA3;fontColor=#46495D;fillColor=#B2C9AB;exitX=0.5;exitY=0;exitDx=0;exitDy=0;" edge="1" parent="1" source="SSYOtkQFs4n_i03z0SLr-57">
          <mxGeometry relative="1" as="geometry">
            <mxPoint x="374.5" y="895" as="sourcePoint" />
            <mxPoint x="375" y="855" as="targetPoint" />
            <Array as="points" />
          </mxGeometry>
        </mxCell>
        <mxCell id="WPv6gTqN2YTWObSN8dlL-36" value="NHN Cloud" style="text;html=1;align=center;verticalAlign=middle;resizable=0;points=[];autosize=1;strokeColor=none;fillColor=none;fontSize=16;" vertex="1" parent="1">
          <mxGeometry x="380" y="865" width="100" height="30" as="geometry" />
        </mxCell>
        <mxCell id="WPv6gTqN2YTWObSN8dlL-37" value="휴대전화" style="whiteSpace=wrap;html=1;strokeColor=#82b366;fillColor=#d5e8d4;" vertex="1" parent="1">
          <mxGeometry x="330" y="815" width="90" height="40" as="geometry" />
        </mxCell>
        <mxCell id="WPv6gTqN2YTWObSN8dlL-38" value="I2C&lt;br&gt;또는&lt;br&gt;UART" style="text;html=1;align=center;verticalAlign=middle;resizable=0;points=[];autosize=1;strokeColor=none;fillColor=none;labelBackgroundColor=none;fontColor=#46495D;" vertex="1" parent="1">
          <mxGeometry x="170" y="920" width="60" height="60" as="geometry" />
        </mxCell>
        <mxCell id="WPv6gTqN2YTWObSN8dlL-41" value="" style="edgeStyle=none;curved=1;rounded=0;orthogonalLoop=1;jettySize=auto;html=1;fontSize=12;startSize=8;endSize=8;exitX=0.473;exitY=1;exitDx=0;exitDy=0;exitPerimeter=0;" edge="1" parent="1" source="WPv6gTqN2YTWObSN8dlL-64" target="WPv6gTqN2YTWObSN8dlL-40">
          <mxGeometry relative="1" as="geometry">
            <mxPoint x="-605" y="340" as="sourcePoint" />
          </mxGeometry>
        </mxCell>
        <mxCell id="WPv6gTqN2YTWObSN8dlL-40" value="count : +1&lt;br&gt;entered time : 시작" style="whiteSpace=wrap;html=1;fontSize=16;fillColor=#d5e8d4;strokeColor=#82b366;" vertex="1" parent="1">
          <mxGeometry x="-677.5" y="400" width="145" height="60" as="geometry" />
        </mxCell>
        <mxCell id="WPv6gTqN2YTWObSN8dlL-48" value="" style="edgeStyle=none;curved=1;rounded=0;orthogonalLoop=1;jettySize=auto;html=1;fontSize=12;startSize=8;endSize=8;exitX=0.5;exitY=1;exitDx=0;exitDy=0;" edge="1" parent="1" source="WPv6gTqN2YTWObSN8dlL-63" target="WPv6gTqN2YTWObSN8dlL-47">
          <mxGeometry relative="1" as="geometry">
            <mxPoint x="-347.5" y="340" as="sourcePoint" />
          </mxGeometry>
        </mxCell>
        <mxCell id="WPv6gTqN2YTWObSN8dlL-47" value="count : -1&lt;br&gt;entered time : 삭제" style="whiteSpace=wrap;html=1;fontSize=16;fillColor=#d5e8d4;strokeColor=#82b366;" vertex="1" parent="1">
          <mxGeometry x="-417.5" y="400" width="140" height="60" as="geometry" />
        </mxCell>
        <mxCell id="WPv6gTqN2YTWObSN8dlL-55" value="" style="edgeStyle=none;curved=1;rounded=0;orthogonalLoop=1;jettySize=auto;html=1;fontSize=12;startSize=8;endSize=8;exitX=0.5;exitY=1;exitDx=0;exitDy=0;" edge="1" parent="1" source="WPv6gTqN2YTWObSN8dlL-65" target="WPv6gTqN2YTWObSN8dlL-54">
          <mxGeometry relative="1" as="geometry">
            <mxPoint x="-450" y="130" as="sourcePoint" />
          </mxGeometry>
        </mxCell>
        <mxCell id="WPv6gTqN2YTWObSN8dlL-54" value="초음파 센서 1이 초음파 센서 2 보다 먼저 작동했는가?" style="rhombus;whiteSpace=wrap;html=1;fontSize=16;fillColor=#d5e8d4;strokeColor=#82b366;" vertex="1" parent="1">
          <mxGeometry x="-617.5" y="150" width="335" height="70" as="geometry" />
        </mxCell>
        <mxCell id="WPv6gTqN2YTWObSN8dlL-59" value="" style="edgeStyle=segmentEdgeStyle;endArrow=classic;html=1;curved=0;rounded=0;endSize=8;startSize=8;fontSize=12;exitX=1;exitY=0.5;exitDx=0;exitDy=0;entryX=0.5;entryY=0;entryDx=0;entryDy=0;" edge="1" parent="1" source="WPv6gTqN2YTWObSN8dlL-54" target="WPv6gTqN2YTWObSN8dlL-63">
          <mxGeometry width="50" height="50" relative="1" as="geometry">
            <mxPoint x="-150" y="220" as="sourcePoint" />
            <mxPoint x="-350" y="260" as="targetPoint" />
            <Array as="points">
              <mxPoint x="-282" y="220" />
              <mxPoint x="-347" y="220" />
              <mxPoint x="-347" y="260" />
            </Array>
          </mxGeometry>
        </mxCell>
        <mxCell id="WPv6gTqN2YTWObSN8dlL-60" value="" style="edgeStyle=segmentEdgeStyle;endArrow=classic;html=1;curved=0;rounded=0;endSize=8;startSize=8;fontSize=12;exitX=0.5;exitY=1;exitDx=0;exitDy=0;entryX=0.477;entryY=0;entryDx=0;entryDy=0;entryPerimeter=0;" edge="1" parent="1" source="WPv6gTqN2YTWObSN8dlL-54" target="WPv6gTqN2YTWObSN8dlL-64">
          <mxGeometry width="50" height="50" relative="1" as="geometry">
            <mxPoint x="-150" y="220" as="sourcePoint" />
            <mxPoint x="-605" y="260" as="targetPoint" />
            <Array as="points">
              <mxPoint x="-450" y="240" />
              <mxPoint x="-605" y="240" />
            </Array>
          </mxGeometry>
        </mxCell>
        <mxCell id="WPv6gTqN2YTWObSN8dlL-61" value="예" style="text;html=1;align=center;verticalAlign=middle;resizable=0;points=[];autosize=1;strokeColor=none;fillColor=none;fontSize=16;" vertex="1" parent="1">
          <mxGeometry x="-560" y="210" width="40" height="30" as="geometry" />
        </mxCell>
        <mxCell id="WPv6gTqN2YTWObSN8dlL-62" value="아니오" style="text;html=1;align=center;verticalAlign=middle;resizable=0;points=[];autosize=1;strokeColor=none;fillColor=none;fontSize=16;" vertex="1" parent="1">
          <mxGeometry x="-347.5" y="220" width="70" height="30" as="geometry" />
        </mxCell>
        <mxCell id="WPv6gTqN2YTWObSN8dlL-63" value="안에서 밖으로 나갔는가?" style="whiteSpace=wrap;html=1;fontSize=16;fillColor=#d5e8d4;strokeColor=#82b366;" vertex="1" parent="1">
          <mxGeometry x="-442.5" y="270" width="190" height="60" as="geometry" />
        </mxCell>
        <mxCell id="WPv6gTqN2YTWObSN8dlL-64" value="밖에서 안으로 들어왔는가?" style="whiteSpace=wrap;html=1;fontSize=16;fillColor=#d5e8d4;strokeColor=#82b366;" vertex="1" parent="1">
          <mxGeometry x="-710" y="270" width="220" height="60" as="geometry" />
        </mxCell>
        <mxCell id="WPv6gTqN2YTWObSN8dlL-65" value="물체가 센싱 범위에 들어 왔는가?" style="rhombus;whiteSpace=wrap;html=1;fontSize=16;fillColor=#d5e8d4;strokeColor=#82b366;" vertex="1" parent="1">
          <mxGeometry x="-582.5" y="40" width="265" height="80" as="geometry" />
        </mxCell>
        <mxCell id="WPv6gTqN2YTWObSN8dlL-67" value="예" style="text;html=1;align=center;verticalAlign=middle;resizable=0;points=[];autosize=1;strokeColor=none;fillColor=none;fontSize=16;" vertex="1" parent="1">
          <mxGeometry x="-442.5" y="120" width="40" height="30" as="geometry" />
        </mxCell>
        <mxCell id="WPv6gTqN2YTWObSN8dlL-68" value="" style="edgeStyle=segmentEdgeStyle;endArrow=classic;html=1;curved=0;rounded=0;endSize=8;startSize=8;fontSize=12;exitX=1;exitY=0.5;exitDx=0;exitDy=0;entryX=0.5;entryY=0;entryDx=0;entryDy=0;" edge="1" parent="1" source="WPv6gTqN2YTWObSN8dlL-65" target="WPv6gTqN2YTWObSN8dlL-65">
          <mxGeometry width="50" height="50" relative="1" as="geometry">
            <mxPoint x="-295" y="80" as="sourcePoint" />
            <mxPoint x="-245" y="30" as="targetPoint" />
            <Array as="points">
              <mxPoint x="-317" y="20" />
              <mxPoint x="-450" y="20" />
            </Array>
          </mxGeometry>
        </mxCell>
        <mxCell id="WPv6gTqN2YTWObSN8dlL-69" value="아니오" style="text;html=1;align=center;verticalAlign=middle;resizable=0;points=[];autosize=1;strokeColor=none;fillColor=none;fontSize=16;" vertex="1" parent="1">
          <mxGeometry x="-320" y="40" width="70" height="30" as="geometry" />
        </mxCell>
        <mxCell id="WPv6gTqN2YTWObSN8dlL-70" value="" style="edgeStyle=orthogonalEdgeStyle;rounded=0;orthogonalLoop=1;jettySize=auto;html=1;strokeColor=#788AA3;fontColor=#46495D;fillColor=#B2C9AB;exitX=1;exitY=0.25;exitDx=0;exitDy=0;entryX=0;entryY=0.25;entryDx=0;entryDy=0;" edge="1" parent="1" source="WPv6gTqN2YTWObSN8dlL-72" target="WPv6gTqN2YTWObSN8dlL-76">
          <mxGeometry relative="1" as="geometry">
            <mxPoint x="-592.5" y="820" as="sourcePoint" />
            <mxPoint x="-512.5" y="820" as="targetPoint" />
          </mxGeometry>
        </mxCell>
        <mxCell id="WPv6gTqN2YTWObSN8dlL-71" style="edgeStyle=orthogonalEdgeStyle;rounded=0;orthogonalLoop=1;jettySize=auto;html=1;strokeColor=#788AA3;fontColor=#46495D;fillColor=#B2C9AB;" edge="1" parent="1" source="WPv6gTqN2YTWObSN8dlL-72">
          <mxGeometry relative="1" as="geometry">
            <mxPoint x="-610" y="855" as="targetPoint" />
            <Array as="points">
              <mxPoint x="-610" y="885" />
              <mxPoint x="-610" y="885" />
            </Array>
          </mxGeometry>
        </mxCell>
        <mxCell id="WPv6gTqN2YTWObSN8dlL-72" value="R4" style="whiteSpace=wrap;html=1;strokeColor=#82b366;fillColor=#d5e8d4;rounded=1;arcSize=50;" vertex="1" parent="1">
          <mxGeometry x="-630" y="815" width="40" height="40" as="geometry" />
        </mxCell>
        <mxCell id="WPv6gTqN2YTWObSN8dlL-73" value="" style="edgeStyle=orthogonalEdgeStyle;rounded=0;orthogonalLoop=1;jettySize=auto;html=1;strokeColor=#788AA3;fontColor=#46495D;fillColor=#B2C9AB;" edge="1" parent="1" source="WPv6gTqN2YTWObSN8dlL-74">
          <mxGeometry relative="1" as="geometry">
            <mxPoint x="-610" y="815" as="targetPoint" />
          </mxGeometry>
        </mxCell>
        <mxCell id="WPv6gTqN2YTWObSN8dlL-74" value="센서" style="whiteSpace=wrap;html=1;strokeColor=#82b366;fillColor=#d5e8d4;sketch=1;curveFitting=1;jiggle=2;" vertex="1" parent="1">
          <mxGeometry x="-630" y="755" width="40" height="30" as="geometry" />
        </mxCell>
        <mxCell id="WPv6gTqN2YTWObSN8dlL-75" value="센서" style="whiteSpace=wrap;html=1;strokeColor=#82b366;fillColor=#d5e8d4;sketch=1;curveFitting=1;jiggle=2;" vertex="1" parent="1">
          <mxGeometry x="-630" y="885" width="40" height="30" as="geometry" />
        </mxCell>
        <mxCell id="WPv6gTqN2YTWObSN8dlL-76" value="컴퓨터" style="whiteSpace=wrap;html=1;strokeColor=#82b366;fillColor=#d5e8d4;rounded=1;arcSize=50;" vertex="1" parent="1">
          <mxGeometry x="-510" y="815" width="50" height="40" as="geometry" />
        </mxCell>
        <mxCell id="WPv6gTqN2YTWObSN8dlL-78" value="MQTT" style="text;html=1;align=center;verticalAlign=middle;resizable=0;points=[];autosize=1;strokeColor=none;fillColor=none;fontSize=16;" vertex="1" parent="1">
          <mxGeometry x="-582.5" y="850" width="70" height="30" as="geometry" />
        </mxCell>
        <mxCell id="WPv6gTqN2YTWObSN8dlL-80" value="" style="edgeStyle=orthogonalEdgeStyle;rounded=0;orthogonalLoop=1;jettySize=auto;html=1;strokeColor=#788AA3;fontColor=#46495D;fillColor=#B2C9AB;exitX=0.5;exitY=0;exitDx=0;exitDy=0;" edge="1" parent="1" source="WPv6gTqN2YTWObSN8dlL-76">
          <mxGeometry relative="1" as="geometry">
            <mxPoint x="-485.5" y="810" as="sourcePoint" />
            <mxPoint x="-485" y="770" as="targetPoint" />
            <Array as="points" />
          </mxGeometry>
        </mxCell>
        <mxCell id="WPv6gTqN2YTWObSN8dlL-81" value="NHN Cloud" style="text;html=1;align=center;verticalAlign=middle;resizable=0;points=[];autosize=1;strokeColor=none;fillColor=none;fontSize=16;" vertex="1" parent="1">
          <mxGeometry x="-480" y="780" width="100" height="30" as="geometry" />
        </mxCell>
        <mxCell id="WPv6gTqN2YTWObSN8dlL-82" value="휴대전화" style="whiteSpace=wrap;html=1;strokeColor=#82b366;fillColor=#d5e8d4;" vertex="1" parent="1">
          <mxGeometry x="-530" y="730" width="90" height="40" as="geometry" />
        </mxCell>
        <mxCell id="WPv6gTqN2YTWObSN8dlL-84" value="" style="edgeStyle=orthogonalEdgeStyle;rounded=0;orthogonalLoop=1;jettySize=auto;html=1;strokeColor=#788AA3;fontColor=#46495D;fillColor=#B2C9AB;entryX=1;entryY=0.75;entryDx=0;entryDy=0;exitX=0;exitY=0.75;exitDx=0;exitDy=0;" edge="1" parent="1" source="WPv6gTqN2YTWObSN8dlL-76" target="WPv6gTqN2YTWObSN8dlL-72">
          <mxGeometry relative="1" as="geometry">
            <mxPoint x="-480" y="880" as="sourcePoint" />
            <mxPoint x="-500" y="835" as="targetPoint" />
          </mxGeometry>
        </mxCell>
        <mxCell id="WPv6gTqN2YTWObSN8dlL-85" value="sub&amp;amp;pub" style="text;html=1;align=center;verticalAlign=middle;resizable=0;points=[];autosize=1;strokeColor=none;fillColor=none;fontSize=16;" vertex="1" parent="1">
          <mxGeometry x="-697.5" y="800" width="90" height="30" as="geometry" />
        </mxCell>
        <mxCell id="WPv6gTqN2YTWObSN8dlL-86" value="broker" style="text;html=1;align=center;verticalAlign=middle;resizable=0;points=[];autosize=1;strokeColor=none;fillColor=none;fontSize=16;" vertex="1" parent="1">
          <mxGeometry x="-465" y="820" width="70" height="30" as="geometry" />
        </mxCell>
        <mxCell id="WPv6gTqN2YTWObSN8dlL-87" value="" style="edgeStyle=orthogonalEdgeStyle;rounded=0;orthogonalLoop=1;jettySize=auto;html=1;strokeColor=#788AA3;fontColor=#46495D;fillColor=#B2C9AB;exitX=1;exitY=0.25;exitDx=0;exitDy=0;entryX=0;entryY=0.25;entryDx=0;entryDy=0;" edge="1" parent="1" source="WPv6gTqN2YTWObSN8dlL-89" target="WPv6gTqN2YTWObSN8dlL-93">
          <mxGeometry relative="1" as="geometry">
            <mxPoint x="-577.5" y="1030" as="sourcePoint" />
            <mxPoint x="-497.5" y="1030" as="targetPoint" />
          </mxGeometry>
        </mxCell>
        <mxCell id="WPv6gTqN2YTWObSN8dlL-88" style="edgeStyle=orthogonalEdgeStyle;rounded=0;orthogonalLoop=1;jettySize=auto;html=1;strokeColor=#788AA3;fontColor=#46495D;fillColor=#B2C9AB;" edge="1" parent="1" source="WPv6gTqN2YTWObSN8dlL-89">
          <mxGeometry relative="1" as="geometry">
            <mxPoint x="-595" y="1065" as="targetPoint" />
            <Array as="points">
              <mxPoint x="-595" y="1095" />
              <mxPoint x="-595" y="1095" />
            </Array>
          </mxGeometry>
        </mxCell>
        <mxCell id="WPv6gTqN2YTWObSN8dlL-89" value="R4" style="whiteSpace=wrap;html=1;strokeColor=#82b366;fillColor=#d5e8d4;rounded=1;arcSize=50;" vertex="1" parent="1">
          <mxGeometry x="-615" y="1025" width="40" height="40" as="geometry" />
        </mxCell>
        <mxCell id="WPv6gTqN2YTWObSN8dlL-90" value="" style="edgeStyle=orthogonalEdgeStyle;rounded=0;orthogonalLoop=1;jettySize=auto;html=1;strokeColor=#788AA3;fontColor=#46495D;fillColor=#B2C9AB;" edge="1" parent="1" source="WPv6gTqN2YTWObSN8dlL-91">
          <mxGeometry relative="1" as="geometry">
            <mxPoint x="-595" y="1025" as="targetPoint" />
          </mxGeometry>
        </mxCell>
        <mxCell id="WPv6gTqN2YTWObSN8dlL-91" value="센서" style="whiteSpace=wrap;html=1;strokeColor=#82b366;fillColor=#d5e8d4;sketch=1;curveFitting=1;jiggle=2;" vertex="1" parent="1">
          <mxGeometry x="-615" y="965" width="40" height="30" as="geometry" />
        </mxCell>
        <mxCell id="WPv6gTqN2YTWObSN8dlL-92" value="센서" style="whiteSpace=wrap;html=1;strokeColor=#82b366;fillColor=#d5e8d4;sketch=1;curveFitting=1;jiggle=2;" vertex="1" parent="1">
          <mxGeometry x="-615" y="1095" width="40" height="30" as="geometry" />
        </mxCell>
        <mxCell id="WPv6gTqN2YTWObSN8dlL-93" value="컴퓨터" style="whiteSpace=wrap;html=1;strokeColor=#82b366;fillColor=#d5e8d4;rounded=1;arcSize=50;" vertex="1" parent="1">
          <mxGeometry x="-495" y="1025" width="50" height="40" as="geometry" />
        </mxCell>
        <mxCell id="WPv6gTqN2YTWObSN8dlL-94" value="MQTT" style="text;html=1;align=center;verticalAlign=middle;resizable=0;points=[];autosize=1;strokeColor=none;fillColor=none;fontSize=16;" vertex="1" parent="1">
          <mxGeometry x="-567.5" y="1060" width="70" height="30" as="geometry" />
        </mxCell>
        <mxCell id="WPv6gTqN2YTWObSN8dlL-95" value="" style="edgeStyle=orthogonalEdgeStyle;rounded=0;orthogonalLoop=1;jettySize=auto;html=1;strokeColor=#788AA3;fontColor=#46495D;fillColor=#B2C9AB;exitX=0.5;exitY=0;exitDx=0;exitDy=0;" edge="1" parent="1" source="WPv6gTqN2YTWObSN8dlL-93">
          <mxGeometry relative="1" as="geometry">
            <mxPoint x="-470.5" y="1020" as="sourcePoint" />
            <mxPoint x="-470" y="980" as="targetPoint" />
            <Array as="points" />
          </mxGeometry>
        </mxCell>
        <mxCell id="WPv6gTqN2YTWObSN8dlL-96" value="NHN Cloud" style="text;html=1;align=center;verticalAlign=middle;resizable=0;points=[];autosize=1;strokeColor=none;fillColor=none;fontSize=16;" vertex="1" parent="1">
          <mxGeometry x="-472.5" y="990" width="100" height="30" as="geometry" />
        </mxCell>
        <mxCell id="WPv6gTqN2YTWObSN8dlL-97" value="휴대전화" style="whiteSpace=wrap;html=1;strokeColor=#82b366;fillColor=#d5e8d4;" vertex="1" parent="1">
          <mxGeometry x="-515" y="940" width="90" height="40" as="geometry" />
        </mxCell>
        <mxCell id="WPv6gTqN2YTWObSN8dlL-99" value="sub" style="text;html=1;align=center;verticalAlign=middle;resizable=0;points=[];autosize=1;strokeColor=none;fillColor=none;fontSize=16;" vertex="1" parent="1">
          <mxGeometry x="-665" y="1030" width="50" height="30" as="geometry" />
        </mxCell>
        <mxCell id="WPv6gTqN2YTWObSN8dlL-100" value="broker" style="text;html=1;align=center;verticalAlign=middle;resizable=0;points=[];autosize=1;strokeColor=none;fillColor=none;fontSize=16;" vertex="1" parent="1">
          <mxGeometry x="-450" y="1030" width="70" height="30" as="geometry" />
        </mxCell>
        <mxCell id="WPv6gTqN2YTWObSN8dlL-101" value="" style="edgeStyle=orthogonalEdgeStyle;rounded=0;orthogonalLoop=1;jettySize=auto;html=1;strokeColor=#788AA3;fontColor=#46495D;fillColor=#B2C9AB;exitX=1;exitY=0.25;exitDx=0;exitDy=0;entryX=0;entryY=0.25;entryDx=0;entryDy=0;" edge="1" parent="1" source="WPv6gTqN2YTWObSN8dlL-103" target="WPv6gTqN2YTWObSN8dlL-107">
          <mxGeometry relative="1" as="geometry">
            <mxPoint x="-668.75" y="585" as="sourcePoint" />
            <mxPoint x="-588.75" y="585" as="targetPoint" />
          </mxGeometry>
        </mxCell>
        <mxCell id="WPv6gTqN2YTWObSN8dlL-102" style="edgeStyle=orthogonalEdgeStyle;rounded=0;orthogonalLoop=1;jettySize=auto;html=1;strokeColor=#788AA3;fontColor=#46495D;fillColor=#B2C9AB;" edge="1" parent="1" source="WPv6gTqN2YTWObSN8dlL-103">
          <mxGeometry relative="1" as="geometry">
            <mxPoint x="-686.25" y="620" as="targetPoint" />
            <Array as="points">
              <mxPoint x="-686.25" y="650" />
              <mxPoint x="-686.25" y="650" />
            </Array>
          </mxGeometry>
        </mxCell>
        <mxCell id="WPv6gTqN2YTWObSN8dlL-103" value="R4" style="whiteSpace=wrap;html=1;strokeColor=#82b366;fillColor=#d5e8d4;rounded=1;arcSize=50;" vertex="1" parent="1">
          <mxGeometry x="-706.25" y="580" width="40" height="40" as="geometry" />
        </mxCell>
        <mxCell id="WPv6gTqN2YTWObSN8dlL-104" value="" style="edgeStyle=orthogonalEdgeStyle;rounded=0;orthogonalLoop=1;jettySize=auto;html=1;strokeColor=#788AA3;fontColor=#46495D;fillColor=#B2C9AB;" edge="1" parent="1" source="WPv6gTqN2YTWObSN8dlL-105">
          <mxGeometry relative="1" as="geometry">
            <mxPoint x="-686.25" y="580" as="targetPoint" />
          </mxGeometry>
        </mxCell>
        <mxCell id="WPv6gTqN2YTWObSN8dlL-105" value="센서" style="whiteSpace=wrap;html=1;strokeColor=#82b366;fillColor=#d5e8d4;sketch=1;curveFitting=1;jiggle=2;" vertex="1" parent="1">
          <mxGeometry x="-706.25" y="520" width="40" height="30" as="geometry" />
        </mxCell>
        <mxCell id="WPv6gTqN2YTWObSN8dlL-106" value="센서" style="whiteSpace=wrap;html=1;strokeColor=#82b366;fillColor=#d5e8d4;sketch=1;curveFitting=1;jiggle=2;" vertex="1" parent="1">
          <mxGeometry x="-706.25" y="650" width="40" height="30" as="geometry" />
        </mxCell>
        <mxCell id="WPv6gTqN2YTWObSN8dlL-107" value="컴퓨터" style="whiteSpace=wrap;html=1;strokeColor=#82b366;fillColor=#d5e8d4;rounded=1;arcSize=50;" vertex="1" parent="1">
          <mxGeometry x="-586.25" y="580" width="50" height="40" as="geometry" />
        </mxCell>
        <mxCell id="WPv6gTqN2YTWObSN8dlL-108" value="MQTT" style="text;html=1;align=center;verticalAlign=middle;resizable=0;points=[];autosize=1;strokeColor=none;fillColor=none;fontSize=16;" vertex="1" parent="1">
          <mxGeometry x="-658.75" y="615" width="70" height="30" as="geometry" />
        </mxCell>
        <mxCell id="WPv6gTqN2YTWObSN8dlL-112" value="sub" style="text;html=1;align=center;verticalAlign=middle;resizable=0;points=[];autosize=1;strokeColor=none;fillColor=none;fontSize=16;" vertex="1" parent="1">
          <mxGeometry x="-756.25" y="585" width="50" height="30" as="geometry" />
        </mxCell>
        <mxCell id="WPv6gTqN2YTWObSN8dlL-113" value="broker" style="text;html=1;align=center;verticalAlign=middle;resizable=0;points=[];autosize=1;strokeColor=none;fillColor=none;fontSize=16;" vertex="1" parent="1">
          <mxGeometry x="-541.25" y="585" width="70" height="30" as="geometry" />
        </mxCell>
        <mxCell id="WPv6gTqN2YTWObSN8dlL-119" value="LCD" style="whiteSpace=wrap;html=1;strokeColor=#82b366;fillColor=#d5e8d4;" vertex="1" parent="1">
          <mxGeometry x="-820" y="815" width="90" height="40" as="geometry" />
        </mxCell>
        <mxCell id="WPv6gTqN2YTWObSN8dlL-122" value="" style="edgeStyle=orthogonalEdgeStyle;rounded=0;orthogonalLoop=1;jettySize=auto;html=1;strokeColor=#788AA3;fontColor=#46495D;fillColor=#B2C9AB;exitX=0;exitY=0.5;exitDx=0;exitDy=0;entryX=1;entryY=0.5;entryDx=0;entryDy=0;" edge="1" parent="1" source="WPv6gTqN2YTWObSN8dlL-72" target="WPv6gTqN2YTWObSN8dlL-119">
          <mxGeometry relative="1" as="geometry">
            <mxPoint x="-690" y="920" as="sourcePoint" />
            <mxPoint x="-690" y="800" as="targetPoint" />
            <Array as="points" />
          </mxGeometry>
        </mxCell>
        <mxCell id="WPv6gTqN2YTWObSN8dlL-123" value="I2C" style="text;html=1;align=center;verticalAlign=middle;resizable=0;points=[];autosize=1;strokeColor=none;fillColor=none;fontSize=16;" vertex="1" parent="1">
          <mxGeometry x="-706.25" y="835" width="50" height="30" as="geometry" />
        </mxCell>
      </root>
    </mxGraphModel>
  </diagram>
  <diagram id="iMR0xEO1MbRalaSGbq3U" name="페이지-2">
    <mxGraphModel dx="1426" dy="843" grid="0" gridSize="10" guides="1" tooltips="1" connect="1" arrows="1" fold="1" page="0" pageScale="1" pageWidth="827" pageHeight="1169" math="0" shadow="0">
      <root>
        <mxCell id="0" />
        <mxCell id="1" parent="0" />
      </root>
    </mxGraphModel>
  </diagram>
</mxfile>
